# xmcd
#
# Track frame offsets: 
#        187
#        5280
#        24175
#        40122
#        63145
#        89630
#        111607
#        130487
#        146162
#        173655
#
# Disc length: 2468 seconds
#
# Revision: 7
# Processed by: cddbd v1.5.2PL0 Copyright (c) Steve Scherf et al.
# Submitted via: ExactAudioCopy v0.95a5
#
DISCID=8309a20a
DTITLE=Boyz II Men - k-Christmas Interpretations
DYEAR=1993
DGENRE=R&B
TTITLE0=Silent Night (Intro)
TTITLE1=Let It Snow
TTITLE2=Share Love
TTITLE3=You're Not Alone
TTITLE4=A Joyous Song
TTITLE5=Why Christmas
TTITLE6=Cold December Nights
TTITLE7=Do They Know
TTITLE8=Who Would Have Thought
TTITLE9=Silent Night
EXTD=
EXTT0=
EXTT1=
EXTT2=
EXTT3=
EXTT4=
EXTT5=
EXTT6=
EXTT7=
EXTT8=
EXTT9=
PLAYORDER=
